<?xml version="1.0" encoding="UTF-8" standalone="no"?>
<!DOCTYPE svg PUBLIC "-//W3C//DTD SVG 1.1//EN" "http://www.w3.org/Graphics/SVG/1.1/DTD/svg11.dtd">
<svg width="100%" height="100%" viewBox="0 0 800 800" version="1.1" xmlns="http://www.w3.org/2000/svg"
     xml:space="preserve"
     style="fill-rule:evenodd;clip-rule:evenodd;stroke-linejoin:round;stroke-miterlimit:2;">
    <g transform="matrix(1,0,0,1,-896.814,-2700)">
        <g id="v2.2_dark" transform="matrix(1,0,0,1,896.814,2700)">
            <rect x="0" y="0" width="800" height="800" style="fill:none;"/>
            <g>
                <g id="Logo">
                    <g id="F" transform="matrix(1.01217,0,0,1,59.5433,-115.194)">
                        <path d="M285.592,354.637L234.196,357.645C209.939,356.787 196.718,369.973 199.933,390.803L234.228,393.596L233.075,667.274L208.771,674.484C201.433,676.792 196.692,688.683 199.942,696.381L232.961,694.401L286.757,691.19L296.234,690.768C315.516,690.16 327.202,682.419 328.982,665.852L286.654,656.091L286.273,536.344L365.055,527.776L365.84,554.511C383.659,555.063 395.86,550.093 398.017,524.492L398.017,457.414C386.882,457.517 382.197,458.875 376.065,464.773C370.748,469.888 370.28,469.133 366.567,484.631L286.273,491.922L286.273,418.699L431.046,405.898L431.137,427.206C448.582,426.78 454.503,415.594 457.243,401.838L458.113,340.289L458.113,316.642C434.47,316.434 433.635,329.057 430.865,342.474L285.592,354.637Z"
                              style="fill:white;"/>
                    </g>
                    <g id="Border" transform="matrix(1,0,0,1,-46.6649,-54.1552)">
                        <g transform="matrix(0.985075,0,0,1.00093,11.0663,-0.6803)">
                            <path d="M741.441,177.841C741.441,169.523 737.951,161.574 731.795,155.874C725.64,150.174 717.366,147.229 708.93,147.734C611.601,153.568 321.718,170.942 199.111,178.291C167.788,180.168 143.362,205.716 143.362,236.599C143.362,351.417 143.362,611.981 143.362,683.458C143.362,695.475 146.994,707.221 153.795,717.2C154.955,718.902 156.163,720.675 157.394,722.481C170.109,741.137 191.825,751.874 214.622,750.776C332.551,745.099 693.883,727.705 693.883,727.705L693.883,669.941C693.883,669.941 322.523,690.737 217.503,696.618C210.391,697.016 203.426,694.514 198.248,689.699C193.07,684.885 190.135,678.184 190.135,671.173L190.135,203.885L190.135,233.22C190.135,233.22 580.099,210.467 673.153,205.038C678.289,204.739 683.323,206.534 687.07,210.003C690.817,213.472 692.947,218.307 692.958,223.37C693.142,310.91 693.883,663.585 693.883,663.585L693.883,727.705L697.453,727.705C721.747,727.705 741.441,708.323 741.441,684.415L741.441,177.841Z"
                                  style="fill:white;"/>
                        </g>
                        <path d="M198.173,201.599L172.66,213.044L198.173,289.06L198.173,251.985C198.173,241.093 206.661,232.088 217.534,231.444C240.408,230.091 275.392,228.021 275.392,228.021L268.578,186.323C268.578,186.323 232.923,188.542 213.817,189.73C206.688,190.174 200.521,194.853 198.173,201.599C198.173,201.599 198.173,201.599 198.173,201.599Z"
                              style="fill:white;"/>
                        <g transform="matrix(1,0,0,1.71378,-28.4822,-479.018)">
                            <path d="M721.626,659.815C719.398,666.363 709.462,671.044 698.023,670.935C674.364,671.483 638.606,673.252 611.964,674.117L747.972,694.794L726.222,657.469L722.627,656.874C722.627,656.874 722.212,658.095 721.626,659.815Z"
                                  style="fill:white;"/>
                        </g>
                    </g>
                </g>
            </g>
        </g>
    </g>
</svg>
