<?xml version="1.0" standalone="no"?>
<!DOCTYPE svg PUBLIC "-//W3C//DTD SVG 20010904//EN"
        "http://www.w3.org/TR/2001/REC-SVG-20010904/DTD/svg10.dtd">
<svg version="1.0" xmlns="http://www.w3.org/2000/svg"
     width="1080.000000pt" height="1080.000000pt" viewBox="0 0 1080.000000 1080.000000"
     preserveAspectRatio="xMidYMid meet">
    <metadata>
        Created by potrace 1.14, written by Peter Selinger 2001-2017
    </metadata>
    <g transform="translate(0.000000,1080.000000) scale(0.100000,-0.100000)"
       fill="#000000" stroke="none">
        <path d="M5510 9335 c-1823 -111 -3342 -206 -3376 -209 -95 -10 -172 -33 -269
-80 -198 -98 -329 -253 -406 -481 l-24 -70 -3 -3135 c-2 -2843 -1 -3142 14
-3215 54 -272 282 -561 531 -671 111 -50 181 -66 318 -71 173 -6 6507 300
6615 321 222 41 407 225 455 451 13 61 15 524 15 3520 0 2190 -4 3472 -10
3509 -21 128 -108 242 -227 299 -64 30 -75 32 -193 34 -71 1 -1555 -86 -3440
-202z m3075 -589 c59 -28 107 -76 132 -131 17 -38 18 -184 24 -2920 7 -2831 7
-2881 -12 -2954 -29 -108 -60 -158 -129 -206 -74 -51 -99 -55 -604 -86 -265
-16 -584 -36 -711 -44 -684 -45 -4824 -276 -4900 -273 -80 3 -97 8 -154 38
-75 40 -130 103 -160 185 l-21 56 0 2892 0 2892 24 50 c25 55 90 119 142 141
24 10 166 22 462 40 2474 150 5722 342 5782 343 60 1 85 -4 125 -23z"/>
        <path d="M6934 8065 c-80 -17 -115 -36 -153 -82 -32 -39 -66 -126 -77 -201 -4
-23 -10 -45 -14 -47 -17 -11 -1974 -167 -2375 -190 -484 -28 -544 -37 -633
-94 -64 -42 -91 -74 -123 -147 -23 -50 -37 -190 -22 -211 6 -9 86 -19 237 -32
125 -10 228 -20 229 -22 4 -7 -13 -3674 -17 -3685 -2 -5 -79 -32 -171 -59 -92
-27 -182 -58 -199 -70 -47 -32 -91 -125 -91 -196 0 -32 4 -61 8 -65 9 -9 1269
60 1405 77 191 23 307 111 346 264 9 32 15 59 13 60 -1 1 -130 31 -287 66
l-285 65 -5 804 c-3 443 -3 808 0 811 7 9 1062 121 1068 114 3 -3 8 -85 10
-182 l5 -176 81 6 c141 10 243 64 288 150 64 127 62 105 66 655 l3 502 -29 0
c-56 0 -148 -22 -193 -47 -26 -14 -70 -49 -99 -78 -47 -47 -55 -63 -80 -146
-24 -81 -31 -94 -51 -98 -62 -9 -1065 -97 -1071 -94 -7 4 -12 982 -5 984 1 0
445 40 987 88 l985 87 7 -36 c4 -19 7 -83 7 -142 1 -123 -4 -119 94 -93 109
28 176 90 224 207 24 58 27 79 34 273 4 116 8 387 8 603 l1 392 -32 -1 c-18 0
-61 -7 -94 -14z"/>
    </g>
</svg>
